name Walk8.mot
datacolumns 19
datarows 22
range 1.08600000 1.10700000
endheader

                time	   L_ground_force_vx	   L_ground_force_vy	   L_ground_force_vz	   L_ground_force_px	   L_ground_force_py	   L_ground_force_pz	   R_ground_force_vx	   R_ground_force_vy	   R_ground_force_vz	   R_ground_force_px	   R_ground_force_py	   R_ground_force_pz	   L_ground_torque_x	   L_ground_torque_y	   L_ground_torque_z	   R_ground_torque_x	   R_ground_torque_y	   R_ground_torque_z	
          1.08600000	         -0.00000000	         -0.00000003	          0.00000000	         -0.00000000	          0.00000000	         -0.00000000	         -5.72063304	         98.76099890	         12.98005234	         -0.00114094	          0.00000000	         -0.00267372	          0.00000000	          0.00000000	          0.00000000	          0.00000000	         -0.13219593	          0.00000000	
          1.08700000	         -0.00000000	         -0.00000003	          0.00000000	         -0.00000000	          0.00000000	         -0.00000000	         -7.44217997	        108.72762493	         13.70348972	         -0.01251567	          0.00000000	          0.01138828	          0.00000000	          0.00000000	          0.00000000	          0.00000000	         -0.12226782	          0.00000000	
          1.08800000	         -0.00000000	         -0.00000003	          0.00000000	         -0.00000000	          0.00000000	         -0.00000000	         -9.20760642	        118.95014088	         14.43669976	         -0.02384520	          0.00000000	          0.02540761	          0.00000000	          0.00000000	          0.00000000	          0.00000000	         -0.11185971	          0.00000000	
          1.08900000	         -0.00000000	         -0.00000003	          0.00000000	         -0.00000000	          0.00000000	         -0.00000000	        -11.01526123	        129.41429444	         15.17758136	         -0.03509559	          0.00000000	          0.03934334	          0.00000000	          0.00000000	          0.00000000	          0.00000000	         -0.10095339	          0.00000000	
          1.09000000	         -0.00000000	         -0.00000003	          0.00000000	         -0.00000000	          0.00000000	         -0.00000000	        -12.86335871	        140.10399245	         15.92380803	         -0.04623281	          0.00000000	          0.05315446	          0.00000000	          0.00000000	          0.00000000	          0.00000000	         -0.08952873	          0.00000000	
          1.09100000	         -0.00000000	         -0.00000004	          0.00000001	         -0.00000000	          0.00000000	         -0.00000000	        -14.74999388	        151.00122279	         16.67281612	         -0.05722353	          0.00000000	          0.06680098	          0.00000000	          0.00000000	          0.00000000	          0.00000000	         -0.07756325	          0.00000000	
          1.09200000	         -0.00000000	         -0.00000004	          0.00000001	         -0.00000000	          0.00000000	         -0.00000000	        -16.67319874	        162.08607660	         17.42179331	         -0.06803644	          0.00000000	          0.08024563	          0.00000000	          0.00000000	          0.00000000	          0.00000000	         -0.06503123	          0.00000000	
          1.09300000	         -0.00000000	         -0.00000004	          0.00000001	         -0.00000000	          0.00000000	         -0.00000000	        -18.63101516	        173.33686019	         18.16766845	         -0.07864318	          0.00000000	          0.09345488	          0.00000000	          0.00000000	          0.00000000	          0.00000000	         -0.05190276	          0.00000000	
          1.09400000	         -0.00000000	         -0.00000004	          0.00000001	         -0.00000000	          0.00000000	         -0.00000000	        -20.62156623	        184.73029221	         18.90710419	         -0.08901842	          0.00000000	          0.10639911	          0.00000000	          0.00000000	          0.00000000	          0.00000000	         -0.03814334	          0.00000000	
          1.09500000	          0.00000000	         -0.00000005	          0.00000001	         -0.00000000	          0.00000000	         -0.00000000	        -22.64312565	        196.24180638	         19.63649426	         -0.09913975	          0.00000000	          0.11905227	          0.00000000	          0.00000000	          0.00000000	          0.00000000	         -0.02371377	          0.00000000	
          1.09600000	          0.00000000	         -0.00000005	          0.00000001	         -0.00000000	          0.00000000	         -0.00000000	        -24.69418126	        207.84596631	         20.35196844	         -0.10898754	          0.00000000	          0.13139172	          0.00000000	          0.00000000	          0.00000000	          0.00000000	         -0.00857040	          0.00000000	
          1.09700000	          0.00000000	         -0.00000005	          0.00000001	         -0.00000000	          0.00000000	         -0.00000000	        -26.77348296	        219.51697344	         21.04940793	         -0.11854479	          0.00000000	          0.14339800	          0.00000000	          0.00000000	          0.00000000	          0.00000000	          0.00733448	          0.00000000	
          1.09800000	          0.00000000	         -0.00000005	          0.00000001	         -0.00000000	          0.00000000	         -0.00000000	        -28.88006728	        231.22922927	         21.72447367	         -0.12779696	          0.00000000	          0.15505461	          0.00000000	          0.00000000	          0.00000000	          0.00000000	          0.02405209	          0.00000000	
          1.09900000	          0.00000000	         -0.00000006	          0.00000001	         -0.00000000	          0.00000000	         -0.00000000	        -31.01325498	        242.95789966	         22.37264809	         -0.13673187	          0.00000000	          0.16634780	          0.00000000	          0.00000000	          0.00000000	          0.00000000	          0.04163672	          0.00000000	
          1.10000000	          0.00000000	         -0.00000006	          0.00000001	         -0.00000000	          0.00000000	         -0.00000000	        -33.17262332	        254.67942723	         22.98928889	         -0.14533949	          0.00000000	          0.17726643	          0.00000000	          0.00000000	          0.00000000	          0.00000000	          0.06014558	          0.00000000	
          1.10100000	          0.00000000	         -0.00000006	          0.00000001	         -0.00000000	          0.00000000	         -0.00000000	        -35.35795895	        266.37194721	         23.56969160	         -0.15361186	          0.00000000	          0.18780172	          0.00000000	          0.00000000	          0.00000000	          0.00000000	          0.07963878	          0.00000000	
          1.10200000	          0.00000000	         -0.00000006	          0.00000001	         -0.00000000	          0.00000000	         -0.00000000	        -37.56919988	        278.01557829	         24.10915681	         -0.16154290	          0.00000000	          0.19794713	          0.00000000	          0.00000000	          0.00000000	          0.00000000	          0.10017930	          0.00000000	
          1.10300000	          0.00000000	         -0.00000007	          0.00000001	         -0.00000000	          0.00000000	         -0.00000000	        -39.80637454	        289.59257826	         24.60305747	         -0.16912832	          0.00000000	          0.20769817	          0.00000000	          0.00000000	          0.00000000	          0.00000000	          0.12183285	          0.00000000	
          1.10400000	          0.00000000	         -0.00000007	          0.00000001	         -0.00000000	          0.00000000	         -0.00000000	        -42.06954403	        301.08736992	         25.04690252	         -0.17636544	          0.00000000	          0.21705223	          0.00000000	          0.00000000	          0.00000000	          0.00000000	          0.14466738	          0.00000000	
          1.10500000	          0.00000000	         -0.00000007	          0.00000001	         -0.00000000	          0.00000000	         -0.00000000	        -44.35875137	        312.48645568	         25.43639415	         -0.18325309	          0.00000000	          0.22600846	          0.00000000	          0.00000000	          0.00000000	          0.00000000	          0.16875238	          0.00000000	
          1.10600000	          0.00000000	         -0.00000007	          0.00000001	         -0.00000000	          0.00000000	         -0.00000000	        -46.67397858	        323.77824735	         25.76747706	         -0.18979148	          0.00000000	          0.23456757	          0.00000000	          0.00000000	          0.00000000	          0.00000000	          0.19415808	          0.00000000	
          1.10700000	          0.00000000	         -0.00000008	          0.00000001	         -0.00000000	          0.00000000	         -0.00000000	        -49.01511125	        334.95284151	         26.03637965	         -0.19598211	          0.00000000	          0.24273174	          0.00000000	          0.00000000	          0.00000000	          0.00000000	          0.22095452	          0.00000000	
